<svg xmlns="http://www.w3.org/2000/svg" width="567" height="171" viewBox="0 0 567 171" version="1.1"><path fill-opacity="0" d="M0 0L567 0 567 171 0 171 0 0Z"/><path fill="#0071b9" d="M176.6 17.6C180.1 11.7 183.8 5.7 188.9 1 191.4 1 193.9 1 196.4 1.1 195.9 5.6 193.5 9.6 191.7 13.7 181 36.6 174.5 61.7 175 87 175 103.5 178.1 119.9 183.7 135.3 186.9 143.8 189.6 152.4 193.5 160.6 194.5 163 195.8 165.4 196.4 168.1 195.7 170.9 192.1 170 190 169.8 186 167.3 183.5 163 180.8 159.3 170.8 143.7 162.7 126.7 159.5 108.4 157 94.4 156.9 79.9 158.8 65.8 161.2 48.7 167.9 32.4 176.6 17.6Z"/><path fill="#22bbea" d="M26.7 30.7C40.4 20.4 58.1 15.9 75.1 18.1 88.3 19.6 100.9 25.4 110.9 34.1 125.2 46.4 133.9 65.1 133.8 84 134.1 100.2 128.1 116.4 117.5 128.6 107 140.8 92 148.9 76 151.1 58.5 153.6 40.1 148.7 26 138.1 26 145.2 26 152.3 26 159.4 16.9 159.6 7.3 155.1 3.7 146.4 -2 133.3 2.4 118.8 0.3 105.1 -0.1 102.6 0.2 100.2 0.6 97.7 9.9 97.9 19.2 97.6 28.5 97.9 32 107.4 38.9 115.5 47.8 120.2 56.9 125.1 67.8 126.3 77.6 123.4 89.1 120.3 99 111.6 103.7 100.7 108.5 89.9 108.1 76.9 102.7 66.4 94.9 50.7 76.1 41.3 58.9 45.1 44.9 47.6 33.2 58.3 28.3 71.6 19.1 71.4 9.9 71.6 0.7 71.5 4.1 55.3 13.4 40.4 26.7 30.7Z"/><path fill="#22bbea" d="M552.1 26.2C553.9 24.4 557.3 24 559.1 26 560.5 27.3 559.9 29.4 560.3 31.1 558.5 32.4 556.5 34.2 554.1 33 551.2 32.3 550.7 28.5 552.1 26.2Z"/><path fill="#0071b9" d="M554.2 26.2C555.5 26.1 556.9 26.1 558.3 26.3 557.8 26.6 556.8 27.1 556.3 27.4 557.2 28 558.4 28.1 559 29 558 30.1 556.7 30.7 555.1 30.8 555.1 29.7 555.1 28.5 555.1 27.3 555 28.8 554.2 31.2 552.3 30.5 552.9 29 553.5 27.6 554.2 26.2Z"/><path fill="#0071b9" d="M215.5 60.3C215.5 49.8 215.5 39.2 215.6 28.7 222.1 28.9 228.6 28.5 235.1 29 238.7 29.1 241.7 32.3 242 35.9 242.9 40.6 241.9 47.2 236.5 48.6 231.7 49.4 226.8 48.8 222 49 222 52.7 222 56.5 222 60.2 219.9 60.3 217.7 60.3 215.5 60.3Z"/><path fill="#0071b9" d="M263.3 29.4C269.1 28.2 275.5 27.9 281.2 29.8 286.9 32.6 285.6 39.9 285.8 45.1 285.8 50.1 286.4 57.2 280.7 59.5 274.9 61 268.4 61.1 262.7 59.4 256.6 56.8 258.1 49.3 258 44 257.9 38.9 257.1 31.4 263.3 29.4Z"/><path fill="#0071b9" d="M304.8 28.8C306.8 28.8 308.9 28.8 311 28.8 311 37.4 311 46.1 311 54.8 316.4 54.7 321.8 54.8 327.3 54.8 327.3 56.6 327.3 58.4 327.3 60.3 319.8 60.3 312.3 60.3 304.8 60.3 304.8 49.8 304.7 39.3 304.8 28.8Z"/><path fill="#0071b9" d="M337.4 28.8C339.9 28.8 342.4 28.8 345 28.8 347.9 32.9 350.8 37 353.7 41.1 356.7 37.2 359.2 32.9 362.4 29.1 364.8 28.3 367.6 28.9 370.2 28.8 366 35 361.2 40.9 357.1 47.2 356.3 51.5 357 55.9 356.7 60.3 354.7 60.3 352.6 60.3 350.5 60.3 349.9 55 352.2 48.9 348.4 44.5 344.7 39.3 341 34.1 337.4 28.8Z"/><path fill="#0071b9" d="M383 28.8C392 28.8 401 28.8 410 28.8 410 30.7 410 32.6 410 34.5 406.6 34.5 403.2 34.5 399.7 34.6 399.8 43.1 399.7 51.7 399.8 60.2 397.6 60.2 395.4 60.3 393.2 60.2 393.3 51.7 393.2 43.1 393.3 34.5 389.8 34.5 386.4 34.5 383 34.5 383 32.6 383 30.7 383 28.8Z"/><path fill="#0071b9" d="M427 28.8C434.8 28.8 442.5 28.8 450.3 28.8 450.3 30.7 450.3 32.6 450.3 34.5 444.6 34.5 438.9 34.5 433.3 34.5 433.3 36.8 433.3 39.2 433.3 41.5 438.7 41.5 444.1 41.5 449.5 41.5 449.5 43.3 449.5 45 449.4 46.8 444 46.7 438.6 46.7 433.2 46.8 433.2 49.4 433.3 52.1 433.3 54.8 438.9 54.8 444.6 54.8 450.3 54.8 450.3 56.6 450.3 58.4 450.3 60.3 442.5 60.3 434.8 60.3 427 60.3 427 49.8 427 39.3 427 28.8Z"/><path fill="#0071b9" d="M471 31.9C473.7 28.8 478.2 28.8 482 28.6 485.9 28.5 490.2 28.1 493.6 30.4 496.7 32.7 496.4 37 496.6 40.5 494.5 40.5 492.3 40.5 490.1 40.5 489.9 38.6 490.4 36.4 489.2 34.8 485.4 33.9 481.4 34 477.7 34.8 474.7 35.2 475.1 38.8 475 41 475.1 45.3 474.4 49.8 476.1 53.8 479.7 55.7 484 54.6 487.9 54.6 491.5 54.6 490.3 50.1 490.6 47.7 492.8 47.8 494.9 47.8 497.1 47.8 496.8 51.1 497.5 55.2 494.9 57.8 492.1 60.7 487.7 60.4 484 60.5 479.7 60.5 474.6 61 471.4 57.6 467.8 54 468.9 48.5 468.7 44 468.9 39.9 468 35.2 471 31.9Z"/><path fill="#0071b9" d="M515 28.8C517.2 28.8 519.3 28.8 521.5 28.8 521.5 33 521.5 37.3 521.5 41.5 526.8 41.5 532 41.5 537.3 41.5 537.2 37.2 537.2 33 537.3 28.7 539.4 28.7 541.6 28.8 543.8 28.8 543.7 39.3 543.7 49.7 543.8 60.2 541.6 60.2 539.4 60.3 537.3 60.3 537.3 55.9 537.3 51.4 537.2 47 532 47 526.7 47 521.5 47.1 521.5 51.5 521.5 55.9 521.5 60.3 519.3 60.3 517.2 60.3 515 60.3 515 49.8 515 39.3 515 28.8Z"/><path fill-opacity="0" d="M266.4 34.6C269.9 34 273.5 34.1 276.9 34.5 279.1 34.7 279.2 37.3 279.3 39 279.2 43.6 279.6 48.3 278.9 52.8 278.1 55.3 275 54.6 273 54.8 270.4 54.6 267.4 55.4 265.1 53.8 263.4 49.8 264.6 45.2 264.2 41 264.5 38.9 263.7 35.3 266.4 34.6Z"/><path fill-opacity="0" d="M222 34.5C226.3 34.7 230.7 34.1 235 34.9 236 37.4 236.3 40.5 234.9 42.9 230.7 44 226.3 43.3 222 43.5 222 40.5 222 37.5 222 34.5Z"/><path fill="#22bbea" d="M215.4 73.4C217.6 73.3 219.7 73.2 221.8 73.2 224.4 79.4 226.8 85.7 229.3 91.9 231.3 85.6 234 79.5 236.4 73.3 238.5 73.3 240.6 73.3 242.8 73.2 242.8 81.2 242.7 89.2 242.8 97.2 241.5 97.2 240.3 97.2 239 97.3 239 90.7 239.1 84.2 238.8 77.7 236.4 84.3 233.7 90.8 231.1 97.3 229.8 97.3 228.5 97.2 227.3 97.2 224.7 90.7 222 84.3 219.4 77.8 219.6 84.3 219.5 90.8 219.5 97.3 218.5 97.3 216.5 97.3 215.5 97.3 215.5 89.3 215.6 81.3 215.4 73.4Z"/><path fill="#22bbea" d="M258.5 73.3C260.4 73.3 262.2 73.2 264.1 73.2 266.9 81.3 269.9 89.3 272.6 97.5 271.2 97.4 269.8 97.2 268.5 96.7 267.8 95.4 267.3 93.9 266.8 92.5 263.2 92.5 259.6 92.5 256 92.5 255.4 94.1 254.8 95.7 254.3 97.3 253.3 97.3 251.3 97.3 250.3 97.2 252.9 89.2 255.8 81.3 258.5 73.3Z"/><path fill="#22bbea" d="M280 73.2C284.4 73.3 288.7 73.1 293.1 73.3 295.2 73.5 297.7 74.2 298.6 76.3 299.6 79.9 299.6 84.2 296.8 86.9 299.6 89.7 298.7 93.8 298.7 97.4 297.5 97.3 296.3 97.2 295.1 97.2 294.7 94.6 295.7 91.3 293.7 89.3 290.7 88 287.2 88.7 284 88.5 284 91.4 284 94.3 284 97.3 282.7 97.3 281.3 97.3 280 97.2 280 89.2 280 81.2 280 73.2Z"/><path fill="#22bbea" d="M308.7 85.2C305.6 81.8 306.3 73.8 311.9 73.3 315.5 72.9 319.5 72.6 323 74 325.3 75.1 325 78.1 325.5 80.2 324.6 80.2 322.9 80.2 322 80.2 321.3 78.8 321 76.4 318.9 76.4 316.5 76.1 313.6 75.9 311.5 77.4 310.9 79.1 310.4 81.8 312.2 82.8 315.9 83.9 320 83 323.6 84.5 326.3 86 325.8 89.5 325.8 92.1 325.8 94.4 324.5 96.8 322 97.2 318.1 97.8 314 97.8 310.1 97 307.1 96 307.1 92.3 306.8 89.7 308 89.8 309.2 89.8 310.4 89.8 311.1 91.4 310.8 94.1 313.1 94.1 316.1 94.2 322 95.6 322 91.1 322.2 89.7 321.9 88.3 320.8 87.4 316.9 86.3 312.3 87.6 308.7 85.2Z"/><path fill="#22bbea" d="M333.4 73.4C338.8 73.2 344.2 73.2 349.5 73.3 349.5 74.4 349.5 75.6 349.5 76.7 345.5 76.8 341.5 76.8 337.5 76.8 337.5 79 337.5 81.3 337.5 83.5 341.3 83.5 345.1 83.5 348.9 83.4 348.9 84.5 348.9 85.5 348.9 86.6 345.1 86.5 341.3 86.5 337.5 86.5 337.5 89 337.5 91.5 337.5 94 341.5 94 345.5 94 349.5 94 349.5 94.8 349.5 96.4 349.5 97.2 344.2 97.3 338.8 97.3 333.5 97.3 333.5 89.3 333.6 81.3 333.4 73.4Z"/><path fill="#22bbea" d="M358.3 73.3C359.5 73.2 360.7 73.2 362 73.2 362.1 81.2 362 89.3 362 97.3 360.7 97.2 359.5 97.2 358.2 97.2 358.3 89.2 358.2 81.2 358.3 73.3Z"/><path fill="#22bbea" d="M371.6 73.2C372.9 73.2 374.2 73.3 375.5 73.3 375.5 80.2 375.4 87 375.6 93.8 379.5 93.7 383.4 93.7 387.2 93.8 387.2 94.6 387.3 96.4 387.3 97.2 382 97.3 376.8 97.3 371.5 97.3 371.5 89.2 371.4 81.2 371.6 73.2Z"/><path fill="#22bbea" d="M394.6 73.2C395.9 73.2 397.2 73.3 398.5 73.3 398.5 80.1 398.5 87 398.6 93.8 402.5 93.7 406.4 93.7 410.3 93.8 410.3 94.6 410.2 96.4 410.2 97.2 405 97.3 399.8 97.3 394.5 97.3 394.5 89.2 394.4 81.2 394.6 73.2Z"/><path fill="#22bbea" d="M417 73.2C422.3 73.3 427.7 73.3 433 73.2 433 74.4 433 75.6 433 76.8 429 76.8 425 76.8 421 76.8 421 79 421 81.3 421.1 83.6 424.9 83.5 428.7 83.5 432.5 83.5 432.5 84.3 432.5 85.8 432.5 86.5 428.7 86.5 424.9 86.5 421.1 86.5 421 89 421 91.5 421 94 425 94 429 94 433 94 433 94.8 433 96.4 433 97.2 427.7 97.3 422.3 97.3 417 97.2 417 89.2 417 81.2 417 73.2Z"/><path fill-opacity="0" d="M257 89.5C258.4 85.3 259.8 81 261.5 76.9 262.9 81.1 264.4 85.3 265.8 89.5 262.9 89.5 259.9 89.5 257 89.5Z"/><path fill-opacity="0" d="M284 76.8C287.4 77 291.2 76.1 294.4 77.5 295.6 79.5 295.9 83.1 293.8 84.7 290.7 85.6 287.3 85.2 284 85.3 284 82.4 284 79.6 284 76.8Z"/><path fill="#1a171b" d="M238 116.8C239 116.8 240.1 116.8 241.1 116.8 241.1 118.2 241 119.6 240.9 121 239.9 121.2 239 121.3 238 121.4 238 119.9 238 118.3 238 116.8Z"/><path fill="#1a171b" d="M358.5 116.8C359.6 116.8 360.7 116.7 361.7 116.7 361.7 118.2 361.7 119.8 361.8 121.3 360.7 121.3 359.6 121.3 358.5 121.2 358.5 119.8 358.5 118.3 358.5 116.8Z"/><path fill="#1a171b" d="M278.6 117.5C279.8 117.5 281.1 117.5 282.3 117.5 284.5 123.1 286.5 128.7 288.6 134.3 290.7 128.7 292.8 123.1 294.9 117.5 296.2 117.5 297.4 117.5 298.7 117.5 299.1 125 299.2 132.5 299.6 140 298.8 140 297.3 140 296.5 140 296.3 134.3 296.3 128.6 296.1 122.9 294.2 127.6 292.5 132.3 290.7 137 289.3 137 287.9 137 286.5 136.9 284.7 132.2 283.1 127.4 281.1 122.8 281 128.6 280.9 134.3 280.7 140 280 140 278.5 140 277.7 140 278 132.5 278.2 125 278.6 117.5Z"/><path fill="#1a171b" d="M366.8 116.7C367.5 116.7 368.9 116.6 369.6 116.6 369.9 124.4 369.7 132.2 369.8 140 369 140 367.5 140 366.8 140 366.8 132.2 366.8 124.5 366.8 116.7Z"/><path fill="#1a171b" d="M374.8 116.8C375.6 116.7 377.2 116.5 378 116.4 378 124.3 378 132.2 378 140 377.2 140 375.6 140 374.8 140 374.8 132.3 374.8 124.6 374.8 116.8Z"/><path fill="#1a171b" d="M443 117.5C443.7 117.5 445.1 117.5 445.7 117.5 445.7 118.8 445.8 120.1 445.8 121.5 445.1 121.5 443.7 121.6 443.1 121.6 443 120.2 443 118.8 443 117.5Z"/><path fill="#1a171b" d="M504.8 117.5C505.7 117.5 506.7 117.5 507.8 117.5 507.7 118.8 507.7 120.2 507.7 121.5 506.7 121.5 505.7 121.5 504.8 121.5 504.7 120.2 504.7 118.8 504.8 117.5Z"/><path fill="#1a171b" d="M527.9 120.4C529.5 119.3 531.2 118.3 532.8 117.2 533.1 118 533.4 118.8 533.7 119.6 532.2 120.5 530.6 121.4 529.1 122.4 528.8 121.9 528.2 120.9 527.9 120.4Z"/><path fill="#1a171b" d="M223 117.5C224.4 117.5 225.8 117.5 227.1 117.5 229.6 125 232.3 132.5 234.7 140.1 233.9 140 232.2 139.9 231.4 139.9 230.8 138.1 230.3 136.3 229.7 134.5 226.6 134.5 223.5 134.5 220.4 134.5 219.8 136.3 219.3 138.1 218.7 139.9 217.9 140 216.2 140 215.4 140 218 132.6 220.4 125 223 117.5Z"/><path fill="#1a171b" d="M405 118C405.8 118 407.3 118 408 118 408 123 407.9 128.1 408 133.1 407.2 138.5 417.2 139 417.4 133.9 417.7 128.7 417.4 123.4 417.5 118.1 418.2 118 419.7 118 420.5 118 420.4 123.3 420.6 128.6 420.5 134 420.5 142.2 405.1 142.4 405 134.2 404.9 128.8 405.1 123.4 405 118Z"/><path fill="#fbba02" d="M266.4 120.5C266.9 120.2 267.8 119.6 268.2 119.2 268.6 122.8 268.5 126.4 268.5 129.9 270.3 129.3 273.8 125.7 274.6 128.9 273.1 130.1 271.5 131 269.9 132 271.3 133.4 274.8 133.9 274.4 136.4 272.2 136.8 270.4 135 268.5 134.1 268.5 136.3 268.4 138.4 268.2 140.6 265.3 139.8 266.5 136.4 266.2 134.2 264.2 134.8 261.9 137.5 259.9 135.9 261 134.1 263 133.1 264.8 132 263.4 130.6 258.8 129.8 260.8 127.3 262.7 128 264.5 128.9 266.3 129.8 266.3 126.7 266 123.6 266.4 120.5Z"/><path fill="#1a171b" d="M513.6 123.8C513.5 121.4 513.7 119.2 516.7 119.3 516.7 120.8 516.7 122.3 516.8 123.7 518.2 123.7 519.7 123.8 521.2 123.8 521.1 124.4 520.9 125.7 520.8 126.3 519.5 126.3 518.1 126.3 516.8 126.2 516.8 130 516.7 133.7 516.8 137.5 518.2 137.4 519.6 137.4 521.1 137.4 521 138 520.9 139.3 520.8 140 518.5 139.8 514.7 141 513.9 138 513.6 134.1 513.8 130.2 513.8 126.3 513.1 126.3 511.7 126.3 511 126.2 511 125.6 511 124.4 511 123.8 511.7 123.8 513 123.8 513.6 123.8Z"/><path fill-opacity="0" d="M225 120.6C226.5 124.3 227.6 128 228.8 131.8 226.3 131.8 223.8 131.8 221.4 131.7 222.5 128 223.7 124.3 225 120.6Z"/><path fill="#1a171b" d="M238.1 123.5C238.8 123.5 240.2 123.5 240.9 123.5 241.1 129 241 134.5 241 140 240.3 140 238.8 140 238 140 238 134.5 238 129 238.1 123.5Z"/><path fill="#1a171b" d="M303.8 123.7C307.3 123.1 313 122 314.5 126.4 315.1 131 314.6 135.7 314.7 140.3 313.6 140 312.5 139.7 311.4 139.4 308.9 140 306 141 303.7 139.3 302.1 137.3 301.8 133.6 303.8 131.7 306.2 130.2 309.2 130.9 312 130.7 311.7 129.2 311.9 127.4 310.9 126.2 308.5 125.4 306 126 303.6 126.1 303.6 125.5 303.7 124.3 303.8 123.7Z"/><path fill="#1a171b" d="M329.1 125.1C331.2 122 335.6 123.6 338.8 123.4 338.9 124.1 339 125.5 339.1 126.2 336.6 125.9 334.2 125.8 331.7 125.9 331.7 127.1 331.8 128.4 332.2 129.6 334.4 130.5 337 130.8 339 132.2 339.7 134.3 339.8 136.8 338.7 138.7 336 141.2 331.9 140.3 328.6 139.4 328.6 138.9 328.6 137.7 328.5 137.1 331.1 137.4 333.6 137.7 336.2 137.3 338.1 133.5 333.3 133.1 330.9 132.2 327.9 131.3 328.6 127.5 329.1 125.1Z"/><path fill="#1a171b" d="M342.7 127C343.9 122.7 349.6 122.4 353 124.1 355.8 126.1 355.1 130 355.3 133 351.9 133 348.6 133 345.2 133.1 345.7 134.5 345.5 136.5 347 137.3 349.5 137.9 352.1 137.3 354.6 136.9 354.7 137.8 354.7 138.7 354.8 139.6 351 140.1 345.6 141.6 343.2 137.6 342 134.3 342.5 130.5 342.7 127Z"/><path fill="#1a171b" d="M358.5 123.5C359.6 123.5 360.7 123.5 361.7 123.5 361.8 129 361.8 134.5 361.8 140 360.7 140 359.6 140 358.5 140 358.5 134.5 358.5 129 358.5 123.5Z"/><path fill="#1a171b" d="M384.4 123.6C387 123 390.2 122.8 392.3 124.7 394.2 127 393.6 130.2 393.8 133 390.5 133 387.1 133 383.7 133 384.2 134.6 384 136.9 386 137.4 388.5 137.8 390.9 137.2 393.4 136.9 393.3 137.5 393.2 138.8 393.1 139.4 390 140.3 386.5 140.9 383.5 139.4 380.5 137.8 381.1 133.9 381 131.1 380.8 128.2 381.2 124.6 384.4 123.6Z"/><path fill="#1a171b" d="M443 123.8C443.9 123.8 444.8 123.7 445.7 123.7 445.8 129 445.7 134.4 445.8 139.7 445.1 139.7 443.7 139.8 443.1 139.8 443 134.5 443 129.2 443 123.8Z"/><path fill="#1a171b" d="M243.9 123.3C247.9 122.5 249.1 126.7 251 129.2 252.9 126.7 254 122.5 258 123.3 256.4 126.2 254.5 128.9 252.7 131.7 254.5 134.4 256.4 137.2 258.2 139.9 257.3 140 255.7 140 254.9 140 253.6 138.1 252.3 136.1 251 134.1 249.7 136.1 248.4 138.1 247.2 140 246.3 140 244.6 140 243.8 140 245.5 137.3 247.5 134.7 249 131.8 247.7 128.7 245.5 126.2 243.9 123.3Z"/><path fill="#1a171b" d="M318.8 123.1C320.1 123.5 321.3 124.1 322.3 125 323.6 124.3 325 123.6 326.3 122.9 327.6 126.3 324.1 127.2 322 128.7 322 132.5 322 136.2 322 140 321.2 140 319.6 140 318.8 140 318.8 134.4 318.7 128.7 318.8 123.1Z"/><path fill="#1a171b" d="M425.8 123.6C429.5 126.3 434 121.6 437.4 124.6 439.2 129.4 437.9 134.7 438.3 139.7 437.3 139.7 436.3 139.8 435.3 139.8 435.2 135.3 435.3 130.8 435.1 126.3 433 126.5 430.8 127 428.7 127.7 428.8 131.7 428.8 135.7 428.8 139.8 428 139.8 426.5 139.7 425.8 139.7 425.8 134.4 425.7 129 425.8 123.6Z"/><path fill="#1a171b" d="M448.4 123.5C449.1 123.6 450.5 123.9 451.3 124 453 128.1 454.1 132.6 455.5 136.8 457.1 132.6 458.2 128.2 459.9 124 460.6 123.9 462.1 123.6 462.8 123.5 461.1 128.9 459.4 134.4 457.6 139.8 456.2 139.8 454.9 139.7 453.6 139.7 451.9 134.3 449.9 129 448.4 123.5Z"/><path fill="#1a171b" d="M464.5 129C464.1 123.3 472.4 121.7 475.7 125.4 477.2 127.6 476.6 130.4 476.8 133 473.6 133 470.4 133 467.3 133.1 467.4 134.4 467.7 135.6 468.1 136.9 470.7 138.2 473.7 137.2 476.5 136.8 476.4 137.4 476.3 138.7 476.3 139.3 473.4 140.2 470.2 140.4 467.3 139.6 463.4 137.7 464.7 132.6 464.5 129Z"/><path fill="#1a171b" d="M480.8 123.8C481.4 123.8 482.8 123.7 483.5 123.7 483.5 124.3 483.5 125.3 483.6 125.8 484.9 125 486.3 124.1 487.6 123.3 487.8 124 488.2 125.4 488.4 126.1 486.8 127 485.3 128 483.8 128.9 483.8 132.5 483.7 136.1 483.8 139.7 483 139.7 481.5 139.8 480.8 139.8 480.7 134.4 480.8 129.1 480.8 123.8Z"/><path fill="#1a171b" d="M492.1 124.1C494.7 123 497.7 123.7 500.4 123.9 500.4 124.6 500.2 125.8 500.2 126.5 498 126.4 495.6 125.8 493.5 126.5 491.3 132 500.3 129.4 500.7 133.9 500.9 135.9 500.9 138.7 498.7 139.6 496 140.4 493.1 139.9 490.3 139.6 490.2 139 490.2 137.8 490.2 137.1 492.7 137.4 495.2 137.5 497.7 137.3 497.7 136.5 497.7 134.8 497.7 134 495.2 132.9 491.1 133.1 490.3 129.9 490.1 127.9 490 125.2 492.1 124.1Z"/><path fill="#1a171b" d="M504.8 123.8C505.5 123.8 507 123.8 507.8 123.8 507.8 129.1 507.8 134.4 507.8 139.8 507 139.8 505.5 139.8 504.8 139.8 504.8 134.4 504.8 129.1 504.8 123.8Z"/><path fill="#1a171b" d="M524.1 127.1C525.3 123.2 530.6 122.8 533.7 124.3 536.8 126.1 535.8 130.1 536 133 532.9 133 529.7 133 526.5 133.1 527 134.6 526.7 137.4 529 137.4 531.4 137.6 533.7 137.2 536.1 137.2 536.1 140.5 532.3 139.9 529.9 140 527.6 140.2 524.9 139.4 524.2 136.9 523.5 133.7 523.5 130.3 524.1 127.1Z"/><path fill-opacity="0" d="M345.2 130.2C345.5 128.1 346.2 125.3 349 125.7 351.8 125.2 352.2 128.3 352.6 130.2 350.1 130.3 347.7 130.3 345.2 130.2Z"/><path fill-opacity="0" d="M383.7 130.2C383.9 127.9 385.1 125 388 125.7 390.5 125.6 390.7 128.4 391 130.2 388.6 130.3 386.1 130.3 383.7 130.2Z"/><path fill-opacity="0" d="M467.2 130.4C467.4 128.3 468.2 125.5 471 126 473.6 125.8 473.9 128.6 474.3 130.5 471.9 130.5 469.5 130.5 467.2 130.4Z"/><path fill-opacity="0" d="M526.4 130.4C526.8 128.5 527.4 125.7 530 126 532.7 125.7 533.3 128.4 533.6 130.5 531.2 130.5 528.8 130.5 526.4 130.4Z"/><path fill-opacity="0" d="M305.8 133.8C307.7 133.2 309.8 133.3 311.8 133.2 311.7 134.3 311.7 135.5 311.6 136.7 309.7 137 306.9 138.6 305.5 136.6 305.4 135.7 305.5 134.7 305.8 133.8Z"/></svg>